<svg xmlns="http://www.w3.org/2000/svg" xmlns:xlink="http://www.w3.org/1999/xlink" width="500" zoomAndPan="magnify" viewBox="0 0 375 374.999991" height="500" preserveAspectRatio="xMidYMid meet" version="1.0"><defs><clipPath id="029e383f19"><path d="M 0 28.296875 L 375 28.296875 L 375 347 L 0 347 Z M 0 28.296875 " clip-rule="nonzero"/></clipPath><clipPath id="a168ee6aae"><path d="M 374.992188 169.964844 L 374.992188 162.511719 L 367.59375 161.703125 C 365.605469 161.496094 344.269531 159.355469 316.644531 163.507812 L 316.644531 109.144531 L 307.277344 110.34375 C 291.796875 112.355469 277.433594 115.324219 264.164062 119.160156 C 249.738281 88.515625 225.882812 59.570312 192.722656 32.675781 L 187.5 28.421875 L 182.277344 32.675781 C 149.117188 59.570312 125.261719 88.511719 110.835938 119.160156 C 97.566406 115.324219 83.203125 112.355469 67.722656 110.34375 L 58.355469 109.144531 L 58.355469 163.507812 C 30.722656 159.355469 9.394531 161.496094 7.410156 161.703125 L 0.0078125 162.511719 L 0.0078125 169.964844 C 0.0078125 231.113281 16.421875 277.65625 48.820312 308.34375 C 75.625 333.71875 112.492188 346.960938 155.996094 346.960938 C 159.417969 346.960938 162.898438 346.859375 166.417969 346.714844 L 178.335938 346.714844 L 175.972656 336.464844 C 170.085938 310.941406 160.328125 249.273438 187.5 199.019531 C 214.671875 249.273438 204.914062 310.941406 199.027344 336.464844 L 196.664062 346.714844 L 208.578125 346.714844 C 212.101562 346.859375 215.582031 346.960938 219.003906 346.960938 C 262.507812 346.960938 299.382812 333.71875 326.179688 308.34375 C 358.578125 277.65625 374.992188 231.113281 374.992188 169.964844 Z M 300.070312 128.175781 L 300.070312 166.683594 C 293.351562 168.242188 286.429688 170.191406 279.488281 172.660156 C 278.015625 159.734375 275.035156 147.035156 270.550781 134.601562 C 279.796875 132.011719 289.617188 129.835938 300.070312 128.175781 Z M 74.929688 128.175781 C 85.375 129.835938 95.203125 132.015625 104.449219 134.609375 C 99.972656 147.042969 96.984375 159.742188 95.511719 172.667969 C 88.570312 170.195312 81.648438 168.246094 74.929688 166.691406 Z M 60.21875 296.265625 C 32.605469 270.140625 17.996094 230.300781 16.695312 177.785156 C 25.292969 177.515625 40.570312 177.660156 58.355469 180.625 L 58.355469 229.925781 C 58.355469 267.625 95.660156 305.308594 132.410156 328.820312 C 108.132812 325.625 81.792969 316.726562 60.21875 296.265625 Z M 74.929688 229.933594 L 74.929688 184.117188 C 81.359375 185.777344 87.925781 187.828125 94.476562 190.378906 C 94.148438 240.242188 115.660156 282.800781 134.558594 310.457031 C 102.125 287.988281 74.929688 256.261719 74.929688 229.933594 Z M 154.585938 309.6875 C 136.964844 285.929688 113.296875 245.484375 111.203125 198.078125 C 128.222656 207.25 144.203125 220.484375 156.265625 239.496094 C 151.582031 264.914062 152.28125 289.75 154.585938 309.6875 Z M 161.507812 218.25 C 147.101562 200.261719 129.5625 187.828125 111.535156 179.28125 C 112.628906 165.832031 115.535156 152.640625 120.257812 139.707031 C 145.503906 149.003906 165.460938 162.285156 179.90625 179.507812 C 171.640625 191.835938 165.695312 204.964844 161.507812 218.25 Z M 187.5 163.074219 C 171.917969 146.5625 151.605469 133.648438 126.769531 124.414062 C 139.433594 98.269531 159.703125 73.371094 187.5 49.882812 C 215.296875 73.371094 235.566406 98.269531 248.230469 124.414062 C 223.394531 133.648438 203.082031 146.554688 187.5 163.074219 Z M 195.085938 179.507812 C 209.53125 162.285156 229.496094 149.003906 254.734375 139.707031 C 259.464844 152.632812 262.363281 165.832031 263.460938 179.28125 C 245.429688 187.828125 227.890625 200.261719 213.488281 218.25 C 209.304688 204.964844 203.359375 191.835938 195.085938 179.507812 Z M 218.738281 239.496094 C 230.796875 220.492188 246.777344 207.25 263.796875 198.078125 C 261.707031 245.492188 238.035156 285.929688 220.414062 309.6875 C 222.71875 289.75 223.417969 264.914062 218.738281 239.496094 Z M 280.523438 190.378906 C 287.074219 187.828125 293.640625 185.777344 300.070312 184.117188 L 300.070312 229.933594 C 300.070312 256.261719 272.875 287.988281 240.441406 310.460938 C 259.339844 282.800781 280.851562 240.242188 280.523438 190.378906 Z M 314.78125 296.265625 C 293.207031 316.726562 266.859375 325.632812 242.59375 328.820312 C 279.339844 305.308594 316.644531 267.632812 316.644531 229.925781 L 316.644531 180.625 C 334.429688 177.660156 349.707031 177.511719 358.304688 177.785156 C 357.003906 230.300781 342.394531 270.140625 314.78125 296.265625 Z M 314.78125 296.265625 " clip-rule="nonzero"/></clipPath></defs><g clip-path="url(#029e383f19)"><g clip-path="url(#a168ee6aae)"><path fill="#efede7" d="M 0.0078125 28.421875 L 0.0078125 346.960938 L 374.992188 346.960938 L 374.992188 28.421875 Z M 0.0078125 28.421875 " fill-opacity="1" fill-rule="nonzero"/></g></g></svg>